<?xml version="1.0" encoding="UTF-8" standalone="no"?><svg xmlns="http://www.w3.org/2000/svg" xmlns:xlink="http://www.w3.org/1999/xlink" contentStyleType="text/css" height="1028px" preserveAspectRatio="none" style="width:720px;height:1028px;background:#FFFFFF;" version="1.1" viewBox="0 0 720 1028" width="720px" zoomAndPan="magnify"><defs/><g><!--cluster STUDENT MANAGEMENT SYSTEM--><g id="cluster_STUDENT MANAGEMENT SYSTEM"><rect fill="none" height="1015" rx="2.5" ry="2.5" style="stroke:#181818;stroke-width:1.0;" width="361" x="171" y="7"/><text fill="#000000" font-family="sans-serif" font-size="14" font-weight="bold" lengthAdjust="spacing" textLength="261" x="221" y="21.9951">STUDENT MANAGEMENT SYSTEM</text></g><g id="elem_Course Details"><ellipse cx="351.3343" cy="59.1669" fill="#87CEFA" rx="73.8343" ry="17.1669" style="stroke:#87CEFA;stroke-width:0.5;"/><text fill="#000000" font-family="sans-serif" font-size="14" lengthAdjust="spacing" textLength="103" x="296.8343" y="62.9144">Course Details</text></g><g id="elem_Create Profile"><ellipse cx="351.6868" cy="127.9374" fill="#87CEFA" rx="72.6868" ry="16.9374" style="stroke:#87CEFA;stroke-width:0.5;"/><text fill="#000000" font-family="sans-serif" font-size="14" lengthAdjust="spacing" textLength="100" x="298.6868" y="131.6849">Create Profile</text></g><g id="elem_Profile Login → Two-factor Authentication"><ellipse cx="351.7163" cy="811.8433" fill="#87CEFA" rx="164.7163" ry="35.3433" style="stroke:#87CEFA;stroke-width:0.5;"/><text fill="#000000" font-family="sans-serif" font-size="14" lengthAdjust="spacing" textLength="301" x="201.2163" y="814.6899">Profile Login → Two-factor Authentication</text></g><g id="elem_Reset Password"><ellipse cx="351.3536" cy="268.8707" fill="#87CEFA" rx="77.3536" ry="17.8707" style="stroke:#87CEFA;stroke-width:0.5;"/><text fill="#000000" font-family="sans-serif" font-size="14" lengthAdjust="spacing" textLength="112" x="292.6333" y="272.5454">Reset Password</text></g><g id="elem_Manage Profile"><ellipse cx="351.4948" cy="197.899" fill="#87CEFA" rx="74.9948" ry="17.399" style="stroke:#87CEFA;stroke-width:0.5;"/><text fill="#000000" font-family="sans-serif" font-size="14" lengthAdjust="spacing" textLength="106" x="295.4948" y="201.6465">Manage Profile</text></g><g id="elem_Personal Details"><ellipse cx="351.5591" cy="411.1118" fill="#87CEFA" rx="78.5591" ry="18.1118" style="stroke:#87CEFA;stroke-width:0.5;"/><text fill="#000000" font-family="sans-serif" font-size="14" lengthAdjust="spacing" textLength="115" x="291.8328" y="414.6525">Personal Details</text></g><g id="elem_Information &amp; Announcements"><ellipse cx="351.4187" cy="978.1837" fill="#87CEFA" rx="126.4187" ry="27.6837" style="stroke:#87CEFA;stroke-width:0.5;"/><text fill="#000000" font-family="sans-serif" font-size="14" lengthAdjust="spacing" textLength="221" x="240.9187" y="981.0304">Information &amp; Announcements</text></g><g id="elem_Timetable &amp; Term Dates"><ellipse cx="351.4086" cy="488.0817" fill="#87CEFA" rx="105.9086" ry="23.5817" style="stroke:#87CEFA;stroke-width:0.5;"/><text fill="#000000" font-family="sans-serif" font-size="14" lengthAdjust="spacing" textLength="177" x="262.9086" y="490.9284">Timetable &amp; Term Dates</text></g><g id="elem_Fees &amp; Funding"><ellipse cx="351.2754" cy="340.0551" fill="#87CEFA" rx="75.7754" ry="17.5551" style="stroke:#87CEFA;stroke-width:0.5;"/><text fill="#000000" font-family="sans-serif" font-size="14" lengthAdjust="spacing" textLength="108" x="294.2754" y="343.8026">Fees &amp; Funding</text></g><g id="elem_Attendance"><ellipse cx="351.6678" cy="898.8336" fill="#87CEFA" rx="67.1678" ry="15.8336" style="stroke:#87CEFA;stroke-width:0.5;"/><text fill="#000000" font-family="sans-serif" font-size="14" lengthAdjust="spacing" textLength="85" x="306.1678" y="902.5811">Attendance</text></g><g id="elem_Module Page"><ellipse cx="351.464" cy="563.1928" fill="#87CEFA" rx="68.964" ry="16.1928" style="stroke:#87CEFA;stroke-width:0.5;"/><text fill="#000000" font-family="sans-serif" font-size="14" lengthAdjust="spacing" textLength="90" x="303.464" y="566.9404">Module Page</text></g><g id="elem_View Results"><ellipse cx="351.464" cy="725.1928" fill="#87CEFA" rx="68.964" ry="16.1928" style="stroke:#87CEFA;stroke-width:0.5;"/><text fill="#000000" font-family="sans-serif" font-size="14" lengthAdjust="spacing" textLength="90" x="303.464" y="728.9404">View Results</text></g><g id="elem_Performance &amp; Engagement Rate"><ellipse cx="351.3751" cy="644.175" fill="#87CEFA" rx="136.3751" ry="29.675" style="stroke:#87CEFA;stroke-width:0.5;"/><text fill="#000000" font-family="sans-serif" font-size="14" lengthAdjust="spacing" textLength="242" x="230.3751" y="647.0217">Performance &amp; Engagement Rate</text></g><!--entity New Student--><g id="elem_New Student"><ellipse cx="66.5" cy="72" fill="#F1F1F1" rx="16" ry="16" style="stroke:#181818;stroke-width:1.5;"/><path d="M66.5,92 C70.5,92 73.5,92 77.5,88 C85.5,88 93.5,96 93.5,104 L93.5,108 C93.5,112 89.5,116 85.5,116 L47.5,116 C43.5,116 39.5,112 39.5,108 L39.5,104 C39.5,96 47.5,88 55.5,88 C59.5,92 62.5,92 66.5,92 " fill="#F1F1F1" style="stroke:#181818;stroke-width:1.5;"/><text fill="#000000" font-family="sans-serif" font-size="14" lengthAdjust="spacing" textLength="92" x="20.5" y="130.4951">New Student</text></g><!--entity Enrolled Student--><g id="elem_Enrolled Student"><ellipse cx="66.5" cy="504" fill="#F1F1F1" rx="16" ry="16" style="stroke:#181818;stroke-width:1.5;"/><path d="M66.5,524 C70.5,524 73.5,524 77.5,520 C85.5,520 93.5,528 93.5,536 L93.5,540 C93.5,544 89.5,548 85.5,548 L47.5,548 C43.5,548 39.5,544 39.5,540 L39.5,536 C39.5,528 47.5,520 55.5,520 C59.5,524 62.5,524 66.5,524 " fill="#F1F1F1" style="stroke:#181818;stroke-width:1.5;"/><text fill="#000000" font-family="sans-serif" font-size="14" lengthAdjust="spacing" textLength="121" x="6" y="562.4951">Enrolled Student</text></g><!--entity Module Leader--><g id="elem_Module Leader"><ellipse cx="644.5" cy="677" fill="#F1F1F1" rx="16" ry="16" style="stroke:#181818;stroke-width:1.5;"/><path d="M644.5,697 C648.5,697 651.5,697 655.5,693 C663.5,693 671.5,701 671.5,709 L671.5,713 C671.5,717 667.5,721 663.5,721 L625.5,721 C621.5,721 617.5,717 617.5,713 L617.5,709 C617.5,701 625.5,693 633.5,693 C637.5,697 640.5,697 644.5,697 " fill="#F1F1F1" style="stroke:#181818;stroke-width:1.5;"/><text fill="#000000" font-family="sans-serif" font-size="14" lengthAdjust="spacing" textLength="104" x="592.5" y="735.4951">Module Leader</text></g><!--entity Programme Leader--><g id="elem_Programme Leader"><ellipse cx="644.5" cy="901" fill="#F1F1F1" rx="16" ry="16" style="stroke:#181818;stroke-width:1.5;"/><path d="M644.5,921 C648.5,921 651.5,921 655.5,917 C663.5,917 671.5,925 671.5,933 L671.5,937 C671.5,941 667.5,945 663.5,945 L625.5,945 C621.5,945 617.5,941 617.5,937 L617.5,933 C617.5,925 625.5,917 633.5,917 C637.5,921 640.5,921 644.5,921 " fill="#F1F1F1" style="stroke:#181818;stroke-width:1.5;"/><text fill="#000000" font-family="sans-serif" font-size="14" lengthAdjust="spacing" textLength="137" x="576" y="959.4951">Programme Leader</text></g><!--entity IT Admin--><g id="elem_IT Admin"><ellipse cx="644.5" cy="176" fill="#F1F1F1" rx="16" ry="16" style="stroke:#181818;stroke-width:1.5;"/><path d="M644.5,196 C648.5,196 651.5,196 655.5,192 C663.5,192 671.5,200 671.5,208 L671.5,212 C671.5,216 667.5,220 663.5,220 L625.5,220 C621.5,220 617.5,216 617.5,212 L617.5,208 C617.5,200 625.5,192 633.5,192 C637.5,196 640.5,196 644.5,196 " fill="#F1F1F1" style="stroke:#181818;stroke-width:1.5;"/><text fill="#000000" font-family="sans-serif" font-size="14" lengthAdjust="spacing" textLength="63" x="613" y="234.4951">IT Admin</text></g><!--entity Director--><g id="elem_Director"><ellipse cx="644.5" cy="389" fill="#F1F1F1" rx="16" ry="16" style="stroke:#181818;stroke-width:1.5;"/><path d="M644.5,409 C648.5,409 651.5,409 655.5,405 C663.5,405 671.5,413 671.5,421 L671.5,425 C671.5,429 667.5,433 663.5,433 L625.5,433 C621.5,433 617.5,429 617.5,425 L617.5,421 C617.5,413 625.5,405 633.5,405 C637.5,409 640.5,409 644.5,409 " fill="#F1F1F1" style="stroke:#181818;stroke-width:1.5;"/><text fill="#000000" font-family="sans-serif" font-size="14" lengthAdjust="spacing" textLength="60" x="614.5" y="447.4951">Director</text></g><!--link New Student to Course Details--><g id="link_New Student_Course Details"><path d="M112.655,88.415 C158.008,82.806 228.507,74.087 280.993,67.596 " fill="none" id="New Student-to-Course Details" style="stroke:#4169E1;stroke-width:1.0;"/><polygon fill="#4169E1" points="286.015,66.975,276.5926,64.1082,281.0527,67.5878,277.5731,72.0479,286.015,66.975" style="stroke:#4169E1;stroke-width:1.0;"/></g><!--link New Student to Create Profile--><g id="link_New Student_Create Profile"><path d="M112.655,99.425 C158.159,104.892 228.978,113.4 281.517,119.712 " fill="none" id="New Student-to-Create Profile" style="stroke:#4169E1;stroke-width:1.0;"/><polygon fill="#4169E1" points="286.543,120.316,278.0851,115.2698,281.5788,119.7189,277.1297,123.2125,286.543,120.316" style="stroke:#4169E1;stroke-width:1.0;"/></g><!--link Enrolled Student to Profile Login → Two-factor Authentication--><g id="link_Enrolled Student_Profile Login → Two-factor Authentication"><path d="M72.9892,565.918 C82.2525,617.882 105.9211,708.058 163,759 C177.541,771.978 195.035,781.799 213.416,789.226 " fill="none" id="Enrolled Student-to-Profile Login → Two-factor Authentication" style="stroke:#4169E1;stroke-width:1.0;"/><polygon fill="#4169E1" points="218.106,791.063,211.1857,784.0552,213.4506,789.2388,208.267,791.5038,218.106,791.063" style="stroke:#4169E1;stroke-width:1.0;"/></g><!--link Enrolled Student to Reset Password--><g id="link_Enrolled Student_Reset Password"><path d="M73.2409,486.079 C82.6822,435.766 106.444,350.39 163,305 C192.444,281.37 232.803,271.64 268.537,268.12 " fill="none" id="Enrolled Student-to-Reset Password" style="stroke:#4169E1;stroke-width:1.0;"/><polygon fill="#4169E1" points="273.774,267.644,264.4496,264.4731,268.7944,268.0955,265.172,272.4404,273.774,267.644" style="stroke:#4169E1;stroke-width:1.0;"/></g><!--link Enrolled Student to Manage Profile--><g id="link_Enrolled Student_Manage Profile"><path d="M68.2648,486.467 C71.7657,422.891 88.3948,298.451 163,233 C192.539,207.086 234.98,197.676 272.015,195.037 " fill="none" id="Enrolled Student-to-Manage Profile" style="stroke:#4169E1;stroke-width:1.0;"/><polygon fill="#4169E1" points="277.438,194.696,268.2044,191.2696,272.4479,195.0103,268.7072,199.2538,277.438,194.696" style="stroke:#4169E1;stroke-width:1.0;"/></g><!--link Enrolled Student to Personal Details--><g id="link_Enrolled Student_Personal Details"><path d="M106.189,486.432 C122.449,471.939 142.368,456.723 163,447 C196.722,431.107 237.004,422.231 271.572,417.273 " fill="none" id="Enrolled Student-to-Personal Details" style="stroke:#4169E1;stroke-width:1.0;"/><polygon fill="#4169E1" points="276.63,416.569,267.1641,413.8495,271.6779,417.2591,268.2682,421.7729,276.63,416.569" style="stroke:#4169E1;stroke-width:1.0;"/></g><!--link Enrolled Student to Information & Announcements--><g id="link_Enrolled Student_Information &amp; Announcements"><path d="M71.5536,565.752 C81.7278,657.671 111.297,881.035 163,933 C180.084,950.1705 202.488,961.2298 225.841,968.2607 " fill="none" id="Enrolled Student-to-Information &amp; Announcements" style="stroke:#4169E1;stroke-width:1.0;"/><polygon fill="#4169E1" points="230.837,969.7006,223.2963,963.3652,226.0325,968.3163,221.0814,971.0525,230.837,969.7006" style="stroke:#4169E1;stroke-width:1.0;"/></g><!--link Enrolled Student to Timetable & Term Dates--><g id="link_Enrolled Student_Timetable &amp; Term Dates"><path d="M127.171,517.988 C164.337,512.997 212.978,506.466 255.374,500.773 " fill="none" id="Enrolled Student-to-Timetable &amp; Term Dates" style="stroke:#4169E1;stroke-width:1.0;"/><polygon fill="#4169E1" points="260.512,500.083,251.0596,497.3168,255.5565,500.7487,252.1247,505.2456,260.512,500.083" style="stroke:#4169E1;stroke-width:1.0;"/></g><!--link Enrolled Student to Fees & Funding--><g id="link_Enrolled Student_Fees &amp; Funding"><path d="M81.9255,486.292 C96.7599,451.321 123.331,401.889 163,375 C194.22,353.838 234.775,344.578 270.179,340.819 " fill="none" id="Enrolled Student-to-Fees &amp; Funding" style="stroke:#4169E1;stroke-width:1.0;"/><polygon fill="#4169E1" points="275.363,340.303,266.0116,337.2125,270.3875,340.7974,266.8026,345.1733,275.363,340.303" style="stroke:#4169E1;stroke-width:1.0;"/></g><!--link Enrolled Student to Attendance--><g id="link_Enrolled Student_Attendance"><path d="M73.3263,565.57 C85.9875,646.032 118.491,824.539 163,865 C194.745,893.858 242.441,902.204 281.782,903.414 " fill="none" id="Enrolled Student-to-Attendance" style="stroke:#4169E1;stroke-width:1.0;"/><polygon fill="#4169E1" points="287.028,903.535,278.123,899.3278,282.0293,903.4193,277.9378,907.3256,287.028,903.535" style="stroke:#4169E1;stroke-width:1.0;"/></g><!--link Enrolled Student to Module Page--><g id="link_Enrolled Student_Module Page"><path d="M127.171,533.802 C173.641,539.877 238.051,548.298 285.763,554.536 " fill="none" id="Enrolled Student-to-Module Page" style="stroke:#4169E1;stroke-width:1.0;"/><polygon fill="#4169E1" points="290.91,555.209,282.5035,550.0776,285.9521,554.5618,281.4679,558.0103,290.91,555.209" style="stroke:#4169E1;stroke-width:1.0;"/></g><!--link Enrolled Student to View Results--><g id="link_Enrolled Student_View Results"><path d="M79.5696,565.718 C93.3693,604.059 119.813,660.639 163,691 C195.889,714.122 239.805,722.953 276.867,725.852 " fill="none" id="Enrolled Student-to-View Results" style="stroke:#4169E1;stroke-width:1.0;"/><polygon fill="#4169E1" points="282.283,726.237,273.589,721.6095,277.2956,725.8828,273.0222,729.5894,282.283,726.237" style="stroke:#4169E1;stroke-width:1.0;"/></g><!--reverse link Create Profile to IT Admin--><g id="link_Create Profile_IT Admin"><path d="M418.205,137.923 C454.409,143.976 499.994,152.558 540,163 C564.777,169.467 592.205,178.847 612.597,186.268 " fill="none" id="Create Profile-backto-IT Admin" style="stroke:#4169E1;stroke-width:1.0;"/><polygon fill="#4169E1" points="412.933,137.049,421.1568,142.4684,417.8655,137.8675,422.4664,134.5763,412.933,137.049" style="stroke:#4169E1;stroke-width:1.0;"/></g><!--reverse link Manage Profile to IT Admin--><g id="link_Manage Profile_IT Admin"><path d="M432.037,198 C491.739,198 570.237,198 612.816,198 " fill="none" id="Manage Profile-backto-IT Admin" style="stroke:#4169E1;stroke-width:1.0;"/><polygon fill="#4169E1" points="426.685,198,435.685,202,431.685,198,435.685,194,426.685,198" style="stroke:#4169E1;stroke-width:1.0;"/></g><!--reverse link Module Page to IT Admin--><g id="link_Module Page_IT Admin"><path d="M421.989,568.232 C461.6,567.309 509.31,558.977 540,529 C596.805,473.515 552.107,429.727 576,354 C588.875,313.194 608.82,268.566 623.696,237.537 " fill="none" id="Module Page-backto-IT Admin" style="stroke:#4169E1;stroke-width:1.0;"/><polygon fill="#4169E1" points="416.705,568.312,425.7656,572.1727,421.7044,568.2349,425.6422,564.1736,416.705,568.312" style="stroke:#4169E1;stroke-width:1.0;"/></g><!--reverse link Personal Details to Director--><g id="link_Personal Details_Director"><path d="M435.117,411 C495.107,411 572.758,411 614.27,411 " fill="none" id="Personal Details-backto-Director" style="stroke:#4169E1;stroke-width:1.0;"/><polygon fill="#4169E1" points="430.1,411,439.1,415,435.1,411,439.1,407,430.1,411" style="stroke:#4169E1;stroke-width:1.0;"/></g><!--reverse link Fees & Funding to Director--><g id="link_Fees &amp; Funding_Director"><path d="M421.163,350.275 C456.888,356.259 501.107,364.669 540,375 C565.558,381.789 593.875,391.819 614.42,399.569 " fill="none" id="Fees &amp; Funding-backto-Director" style="stroke:#4169E1;stroke-width:1.0;"/><polygon fill="#4169E1" points="415.955,349.409,424.177,354.8311,420.8873,350.2291,425.4892,346.9394,415.955,349.409" style="stroke:#4169E1;stroke-width:1.0;"/></g><!--reverse link Performance & Engagement Rate to Director--><g id="link_Performance &amp; Engagement Rate_Director"><path d="M475.152,627.803 C498.277,620.702 521.102,610.536 540,596 C587.987,559.089 617.039,493.227 631.676,450.861 " fill="none" id="Performance &amp; Engagement Rate-backto-Director" style="stroke:#4169E1;stroke-width:1.0;"/><polygon fill="#4169E1" points="470.214,629.272,479.9814,630.5364,475.006,627.8447,477.6977,622.8693,470.214,629.272" style="stroke:#4169E1;stroke-width:1.0;"/></g><!--reverse link Information & Announcements to Programme Leader--><g id="link_Information &amp; Announcements_Programme Leader"><path d="M452.707,959.0605 C493.295,951.3893 539.106,942.7309 575.664,935.821 " fill="none" id="Information &amp; Announcements-backto-Programme Leader" style="stroke:#4169E1;stroke-width:1.0;"/><polygon fill="#4169E1" points="447.784,959.9909,457.3703,962.2499,452.697,959.0623,455.8846,954.3891,447.784,959.9909" style="stroke:#4169E1;stroke-width:1.0;"/></g><!--reverse link Performance & Engagement Rate to Programme Leader--><g id="link_Performance &amp; Engagement Rate_Programme Leader"><path d="M477.557,659.335 C500.124,666.524 522.126,676.942 540,692 C555.607,705.148 603.056,820.832 627.922,883.332 " fill="none" id="Performance &amp; Engagement Rate-backto-Programme Leader" style="stroke:#4169E1;stroke-width:1.0;"/><polygon fill="#4169E1" points="472.734,657.849,480.1583,664.3204,477.5126,659.3204,482.5126,656.6747,472.734,657.849" style="stroke:#4169E1;stroke-width:1.0;"/></g><!--reverse link Performance & Engagement Rate to Module Leader--><g id="link_Performance &amp; Engagement Rate_Module Leader"><path d="M459.615,664.245 C504.905,672.805 555.539,682.375 592.189,689.302 " fill="none" id="Performance &amp; Engagement Rate-backto-Module Leader" style="stroke:#4169E1;stroke-width:1.0;"/><polygon fill="#4169E1" points="454.687,663.314,462.7875,668.9159,459.6,664.2426,464.2733,661.0551,454.687,663.314" style="stroke:#4169E1;stroke-width:1.0;"/></g><!--reverse link Information & Announcements to Module Leader--><g id="link_Information &amp; Announcements_Module Leader"><path d="M473.901,965.9607 C497.734,959.1135 521.156,948.7103 540,933 C555.887,919.755 603.441,801.923 628.175,738.697 " fill="none" id="Information &amp; Announcements-backto-Module Leader" style="stroke:#4169E1;stroke-width:1.0;"/><polygon fill="#4169E1" points="468.81,967.3685,478.5506,968.8247,473.6291,966.0357,476.4181,961.1141,468.81,967.3685" style="stroke:#4169E1;stroke-width:1.0;"/></g><!--reverse link Attendance to Module Leader--><g id="link_Attendance_Module Leader"><path d="M423.629,899.575 C461.053,896.727 506.075,888.027 540,865 C584.961,834.482 614.15,777.268 629.72,738.649 " fill="none" id="Attendance-backto-Module Leader" style="stroke:#4169E1;stroke-width:1.0;"/><polygon fill="#4169E1" points="418.636,899.924,427.8939,903.2843,423.6237,899.5741,427.334,895.3039,418.636,899.924" style="stroke:#4169E1;stroke-width:1.0;"/></g><!--reverse link Module Page to Module Leader--><g id="link_Module Page_Module Leader"><path d="M425.109,566.098 C461.295,570.085 504.736,578.698 540,597 C568.774,611.934 594.739,637.575 613.465,659.412 " fill="none" id="Module Page-backto-Module Leader" style="stroke:#4169E1;stroke-width:1.0;"/><polygon fill="#4169E1" points="419.825,565.543,428.3574,570.4622,424.7976,566.0658,429.1939,562.506,419.825,565.543" style="stroke:#4169E1;stroke-width:1.0;"/></g><!--SRC=[dPF1Rjim38RlVWeYXs8x-0s60KxZ50NY88Yz0JjgDkCAaSH2ac44GwzxW3vYdsIqlMMk5GT1RmRvKUJ_arPuyE09hAoVF5JIOkabcSWTfNaMLcWGfIUR-vD242qwqZXAFeloA6eSqbsjCBKQ0ut3KZY4Nz6IqTfIOwfxKcHXqtNCZwUbQZ1QagtGNaX4YRNK3eazdOJgeqatqxXcgVZr8RmcuxT28znJOoNQA7g9UWsms68BkMygD7xnBvOQIqfX5IGogXeMjK71NSxHdQMQTUaWyLX0Kcbfpe5LxoKnSVO55ddnRPLk2yYIRVAGPjrd_YClqcp13hsR3-BuAtpgDB1xA_H2AlVv8c9HU0GUx20LCX8e6hY_06oebWRUVhz2qL9y6APD6l_4g2n5j_tvH_ReqCDEEDUo-_DS9WoVnGr3eNLaX1efd24VpO6ixiU3EqYCuKigKJDmfQYGcj_zoQhle42hOSLMNU7NY8xHDH-fDFKybtYFfX8ym1KBXllPiG_pq7V9-sHJ6zN9cEuIliJn-BAcjeRvKSyW6NWz4F_lT2e_oFCB_H9ODsEfgRbFjm7OyzGXVcrb0np-JJVr-63Pv8- -ORvfnMZlbu5m0HFYvGy0]--></g></svg>